<?xml version="1.0" encoding="utf-8"?>
<!-- Generator: Adobe Illustrator 16.0.0, SVG Export Plug-In . SVG Version: 6.00 Build 0)  -->
<!DOCTYPE svg PUBLIC "-//W3C//DTD SVG 1.1//EN" "http://www.w3.org/Graphics/SVG/1.1/DTD/svg11.dtd">
<svg version="1.1" id="Layer_1" xmlns="http://www.w3.org/2000/svg" xmlns:xlink="http://www.w3.org/1999/xlink" x="0px" y="0px"
	 width="217.728px" height="44.988px" viewBox="0 0 217.728 44.988" enable-background="new 0 0 217.728 44.988"
	 xml:space="preserve">
<g>
	<path fill="#FFFFFF" d="M33.603,44.008H26.38l-1.163-1.959c-2.387,1.898-5.325,2.939-8.447,2.939c-3.61,0-7.039-1.469-9.609-4.041
		c-2.632-2.57-4.04-5.999-4.04-9.671v-9.67H0v-7.223h10.344v16.893c0,3.611,2.877,6.488,6.426,6.488
		c3.489,0,6.306-2.693,6.489-6.182V14.384h7.161v22.28l0.123,0.122h3.06V44.008z"/>
	<path fill="#FFFFFF" d="M49.694,44.008H35.861v-7.223h3.122V21.606h-3.122v-7.162h7.223l1.102,2.02c2.326-1.836,5.203-3,8.447-3
		c7.589,0,13.649,6.427,13.649,13.649v9.671h3.121v7.223H55.57v-7.223h3.55v-9.671c0-3.549-2.938-6.427-6.487-6.427
		c-3.489,0-6.489,2.754-6.489,6.182v9.916h3.55V44.008z"/>
	<path fill="#FFFFFF" d="M70.01,29.134c0-8.752,7.406-15.73,15.73-15.73c4.162,0,8.14,1.653,11.079,4.652l-5.081,5.08
		c-1.591-1.652-3.733-2.509-5.998-2.509c-4.713,0-8.57,3.856-8.57,8.507c0,4.775,4.04,8.57,8.57,8.57
		c2.265,0,4.407-0.918,5.998-2.51l5.081,5.081c-2.938,2.938-6.917,4.59-11.079,4.59C76.987,44.865,70.01,37.459,70.01,29.134z"/>
	<path fill="#FFFFFF" d="M97.122,29.196c0-8.875,7.713-15.73,15.73-15.73c8.754,0,15.73,7.406,15.73,15.73
		c0,8.814-7.344,15.73-15.73,15.73C103.917,44.926,97.122,37.275,97.122,29.196z M104.344,29.196c0,4.713,3.855,8.569,8.508,8.569
		c4.713,0,8.568-3.856,8.568-8.569c0-4.713-3.855-8.508-8.568-8.508C108.2,20.688,104.344,24.483,104.344,29.196z"/>
	<path fill="#FFFFFF" d="M143.999,44.008h-10.953V21.606h-3.551v-7.223h14.26v7.223h-3.549v15.241h0.244l11.568-15.241h-3.672
		v-7.223h16.037v7.223h-3.305L143.999,44.008z"/>
	<path fill="#FFFFFF" d="M194.676,35.072c-2.205,5.692-8.08,9.793-14.568,9.793c-8.324,0-15.73-6.977-15.73-15.73
		c0-8.324,6.977-15.73,15.73-15.73c8.08,0,15.73,6.794,15.73,15.73c0,1.225-0.123,2.388-0.369,3.489h-23.135
		c1.285,3,4.285,5.081,7.773,5.081c2.387,0,4.59-1.041,6.18-2.632H194.676z M172.088,26.258h16.037
		c-1.162-3.244-4.346-5.631-8.018-5.631C176.374,20.627,173.252,23.014,172.088,26.258z"/>
	<path fill="#FFFFFF" d="M213.583,21.606h-5.938v15.179h3.549v7.223H200.42V21.606h-3.67v-7.223h3.67V0h7.225v14.384h5.938V21.606z"
		/>
</g>
</svg>
